<svg width="542" height="110" viewBox="0 0 542 110" fill="none" xmlns="http://www.w3.org/2000/svg">
<mask id="mask0_76420_1689" style="mask-type:alpha" maskUnits="userSpaceOnUse" x="2" y="2" width="538" height="108">
<rect x="2.02197" y="2.06934" width="537.851" height="107.603" fill="url(#paint0_radial_76420_1689)"/>
</mask>
<g mask="url(#mask0_76420_1689)">
<path opacity="0.2" d="M189.214 91.0418C96.4784 99.7218 44.6093 83.2346 2.1709 62.253V202.274H539.724V22.2416C358.444 8.57911 297.144 80.9396 189.214 91.0418Z" fill="#C6C7F8"/>
<path opacity="0.4" d="M215.493 51.6526C105.718 13.2573 24.84 73.6626 2.1709 94.378V202.274H539.724V2.06934C424.23 47.0026 413.053 120.752 215.493 51.6526Z" fill="#A8C5DA"/>
</g>
<path d="M2.1709 62.253C44.6093 83.2346 96.4784 99.7217 189.214 91.0417C243.079 86 285.33 65.4511 336.677 47.8278" stroke="#C6C7F8" stroke-width="3" stroke-linecap="round" stroke-linejoin="round"/>
<path d="M539.724 22.2415C449.505 15.442 389.003 29.9488 337.681 47.4841" stroke="#C6C7F8" stroke-width="3" stroke-linecap="round" stroke-linejoin="round" stroke-dasharray="3 10"/>
<path d="M2.1709 94.378C24.84 73.6626 105.718 13.2573 215.493 51.6526C413.053 120.752 424.23 47.0026 539.724 2.06934" stroke="#A8C5DA" stroke-width="3" stroke-linecap="round" stroke-linejoin="round"/>
<path d="M189.214 90.8978C242.164 85.9417 283.892 66.0006 334.069 48.5841" stroke="#C6C7F8" stroke-width="3" stroke-linecap="round" stroke-linejoin="round"/>
<defs>
<radialGradient id="paint0_radial_76420_1689" cx="0" cy="0" r="1" gradientTransform="matrix(3.03302 57.8733 -238.989 13.1178 246.683 15.0024)" gradientUnits="userSpaceOnUse">
<stop/>
<stop offset="1" stop-color="#D9D9D9" stop-opacity="0"/>
</radialGradient>
</defs>
</svg>
